<svg xmlns="http://www.w3.org/2000/svg" width="24.001" height="20" viewBox="0 0 24.001 20">
  <path id="icon" d="M332.739,4707.474v-1.292c0-4.221-3.746-7.655-8.348-7.655s-8.348,3.435-8.348,7.655v1.292a.522.522,0,1,1-1.044,0v-1.292a8.844,8.844,0,0,1,6.82-8.368,5.217,5.217,0,1,1,5.144,0,8.843,8.843,0,0,1,6.819,8.368v1.292a.522.522,0,1,1-1.043,0Zm-12.522-14.212a4.174,4.174,0,1,0,4.174-4.209A4.2,4.2,0,0,0,320.217,4693.262Zm17.739,12.106v-1.005a6.066,6.066,0,0,0-6.26-5.837.526.526,0,0,1,0-1.053,3.158,3.158,0,0,0,0-6.315.526.526,0,0,1,0-1.053,4.213,4.213,0,0,1,2.293,7.721,6.949,6.949,0,0,1,5.011,6.537v1.005a.522.522,0,1,1-1.044,0Z" transform="translate(-315 -4688)" fill="#ffa84b"/>
</svg>
